<mxfile host="65bd71144e" pages="3">
    <diagram id="jMmyMPH5U2oyruzth7V_" name="reunion notes">
        <mxGraphModel dx="552" dy="532" grid="1" gridSize="10" guides="1" tooltips="1" connect="1" arrows="1" fold="1" page="1" pageScale="1" pageWidth="827" pageHeight="1169" math="0" shadow="0">
            <root>
                <mxCell id="0"/>
                <mxCell id="1" parent="0"/>
                <mxCell id="5pzrK46_yAHdQiJgNj8W-1" value="Gerer des liens internet dans une application en BDD" style="text;html=1;strokeColor=none;fillColor=none;align=center;verticalAlign=middle;whiteSpace=wrap;rounded=0;" parent="1" vertex="1">
                    <mxGeometry x="10" y="10" width="350" height="30" as="geometry"/>
                </mxCell>
                <mxCell id="5pzrK46_yAHdQiJgNj8W-2" value="" style="rounded=0;whiteSpace=wrap;html=1;" parent="1" vertex="1">
                    <mxGeometry x="70" y="90" width="120" height="60" as="geometry"/>
                </mxCell>
                <mxCell id="5pzrK46_yAHdQiJgNj8W-3" value="Liens" style="text;html=1;strokeColor=none;fillColor=none;align=center;verticalAlign=middle;whiteSpace=wrap;rounded=0;" parent="1" vertex="1">
                    <mxGeometry x="100" y="105" width="60" height="30" as="geometry"/>
                </mxCell>
                <mxCell id="5pzrK46_yAHdQiJgNj8W-27" style="edgeStyle=orthogonalEdgeStyle;rounded=0;orthogonalLoop=1;jettySize=auto;html=1;entryX=0.5;entryY=1;entryDx=0;entryDy=0;" parent="1" source="5pzrK46_yAHdQiJgNj8W-4" target="5pzrK46_yAHdQiJgNj8W-2" edge="1">
                    <mxGeometry relative="1" as="geometry"/>
                </mxCell>
                <mxCell id="5pzrK46_yAHdQiJgNj8W-4" value="" style="rounded=0;whiteSpace=wrap;html=1;" parent="1" vertex="1">
                    <mxGeometry x="294" y="90" width="120" height="60" as="geometry"/>
                </mxCell>
                <mxCell id="5pzrK46_yAHdQiJgNj8W-5" value="User" style="text;html=1;strokeColor=none;fillColor=none;align=center;verticalAlign=middle;whiteSpace=wrap;rounded=0;" parent="1" vertex="1">
                    <mxGeometry x="324" y="105" width="60" height="30" as="geometry"/>
                </mxCell>
                <mxCell id="5pzrK46_yAHdQiJgNj8W-6" value="CRUD" style="text;html=1;strokeColor=none;fillColor=none;align=center;verticalAlign=middle;whiteSpace=wrap;rounded=0;rotation=-30;" parent="1" vertex="1">
                    <mxGeometry x="40" y="70" width="60" height="30" as="geometry"/>
                </mxCell>
                <mxCell id="5pzrK46_yAHdQiJgNj8W-7" value="CRUD" style="text;html=1;strokeColor=none;fillColor=none;align=center;verticalAlign=middle;whiteSpace=wrap;rounded=0;rotation=-30;" parent="1" vertex="1">
                    <mxGeometry x="260" y="70" width="60" height="30" as="geometry"/>
                </mxCell>
                <mxCell id="5pzrK46_yAHdQiJgNj8W-8" value="1 utilisateur crée 1 lien" style="text;html=1;strokeColor=none;fillColor=none;align=center;verticalAlign=middle;whiteSpace=wrap;rounded=0;" parent="1" vertex="1">
                    <mxGeometry x="670" y="50" width="140" height="30" as="geometry"/>
                </mxCell>
                <mxCell id="5pzrK46_yAHdQiJgNj8W-9" value="" style="rounded=0;whiteSpace=wrap;html=1;" parent="1" vertex="1">
                    <mxGeometry x="570" y="200" width="240" height="420" as="geometry"/>
                </mxCell>
                <mxCell id="5pzrK46_yAHdQiJgNj8W-10" value="HTTP:// le lien" style="text;html=1;strokeColor=none;fillColor=none;align=center;verticalAlign=middle;whiteSpace=wrap;rounded=0;" parent="1" vertex="1">
                    <mxGeometry x="580" y="210" width="140" height="30" as="geometry"/>
                </mxCell>
                <mxCell id="5pzrK46_yAHdQiJgNj8W-11" value="" style="shape=hexagon;perimeter=hexagonPerimeter2;whiteSpace=wrap;html=1;fixedSize=1;" parent="1" vertex="1">
                    <mxGeometry x="590" y="301" width="60" height="30" as="geometry"/>
                </mxCell>
                <mxCell id="5pzrK46_yAHdQiJgNj8W-12" value="" style="shape=hexagon;perimeter=hexagonPerimeter2;whiteSpace=wrap;html=1;fixedSize=1;" parent="1" vertex="1">
                    <mxGeometry x="650" y="301" width="60" height="30" as="geometry"/>
                </mxCell>
                <mxCell id="5pzrK46_yAHdQiJgNj8W-13" value="" style="shape=hexagon;perimeter=hexagonPerimeter2;whiteSpace=wrap;html=1;fixedSize=1;" parent="1" vertex="1">
                    <mxGeometry x="710" y="301" width="60" height="30" as="geometry"/>
                </mxCell>
                <mxCell id="5pzrK46_yAHdQiJgNj8W-14" value="+" style="text;html=1;strokeColor=none;fillColor=none;align=center;verticalAlign=middle;whiteSpace=wrap;rounded=0;" parent="1" vertex="1">
                    <mxGeometry x="780" y="301" width="30" height="30" as="geometry"/>
                </mxCell>
                <mxCell id="5pzrK46_yAHdQiJgNj8W-15" value="Lien" style="text;html=1;strokeColor=none;fillColor=none;align=center;verticalAlign=middle;whiteSpace=wrap;rounded=0;" parent="1" vertex="1">
                    <mxGeometry x="490" y="210" width="60" height="30" as="geometry"/>
                </mxCell>
                <mxCell id="5pzrK46_yAHdQiJgNj8W-16" value="Catégorie" style="text;html=1;strokeColor=none;fillColor=none;align=center;verticalAlign=middle;whiteSpace=wrap;rounded=0;" parent="1" vertex="1">
                    <mxGeometry x="480" y="301" width="70" height="30" as="geometry"/>
                </mxCell>
                <mxCell id="5pzrK46_yAHdQiJgNj8W-17" value="User" style="text;html=1;strokeColor=none;fillColor=none;align=center;verticalAlign=middle;whiteSpace=wrap;rounded=0;" parent="1" vertex="1">
                    <mxGeometry x="500" y="400" width="60" height="30" as="geometry"/>
                </mxCell>
                <mxCell id="5pzrK46_yAHdQiJgNj8W-19" value="User" style="text;html=1;strokeColor=none;fillColor=none;align=center;verticalAlign=middle;whiteSpace=wrap;rounded=0;" parent="1" vertex="1">
                    <mxGeometry x="590" y="400" width="60" height="30" as="geometry"/>
                </mxCell>
                <mxCell id="5pzrK46_yAHdQiJgNj8W-20" value="" style="ellipse;whiteSpace=wrap;html=1;aspect=fixed;" parent="1" vertex="1">
                    <mxGeometry x="750" y="230" width="50" height="50" as="geometry"/>
                </mxCell>
                <mxCell id="5pzrK46_yAHdQiJgNj8W-21" value="bouton liker" style="text;html=1;strokeColor=none;fillColor=none;align=center;verticalAlign=middle;whiteSpace=wrap;rounded=0;" parent="1" vertex="1">
                    <mxGeometry x="480" y="250" width="70" height="30" as="geometry"/>
                </mxCell>
                <mxCell id="5pzrK46_yAHdQiJgNj8W-22" value="" style="image;aspect=fixed;html=1;points=[];align=center;fontSize=12;image=img/lib/azure2/general/Heart.svg;" parent="1" vertex="1">
                    <mxGeometry x="764.3399999999999" y="245" width="21.33" height="20" as="geometry"/>
                </mxCell>
                <mxCell id="5pzrK46_yAHdQiJgNj8W-23" value="doit se connecter" style="text;html=1;strokeColor=none;fillColor=none;align=center;verticalAlign=middle;whiteSpace=wrap;rounded=0;" parent="1" vertex="1">
                    <mxGeometry x="470" y="100" width="140" height="30" as="geometry"/>
                </mxCell>
                <mxCell id="5pzrK46_yAHdQiJgNj8W-24" value="" style="endArrow=classic;html=1;rounded=0;exitX=1;exitY=0.5;exitDx=0;exitDy=0;entryX=0;entryY=0.5;entryDx=0;entryDy=0;" parent="1" source="5pzrK46_yAHdQiJgNj8W-4" target="5pzrK46_yAHdQiJgNj8W-23" edge="1">
                    <mxGeometry width="50" height="50" relative="1" as="geometry">
                        <mxPoint x="400" y="240" as="sourcePoint"/>
                        <mxPoint x="450" y="190" as="targetPoint"/>
                    </mxGeometry>
                </mxCell>
                <mxCell id="5pzrK46_yAHdQiJgNj8W-25" value="le coeur permet de liker un lien seulement si le USER est connecté" style="text;html=1;strokeColor=none;fillColor=none;align=center;verticalAlign=middle;whiteSpace=wrap;rounded=0;" parent="1" vertex="1">
                    <mxGeometry x="620" y="130" width="170" height="50" as="geometry"/>
                </mxCell>
                <mxCell id="5pzrK46_yAHdQiJgNj8W-26" value="Le USER Cree le lien" style="text;html=1;strokeColor=none;fillColor=none;align=center;verticalAlign=middle;whiteSpace=wrap;rounded=0;" parent="1" vertex="1">
                    <mxGeometry x="200" y="190" width="140" height="30" as="geometry"/>
                </mxCell>
                <mxCell id="5pzrK46_yAHdQiJgNj8W-28" value="Si pas connecté&lt;br&gt;-recherche&lt;br&gt;-acces aux liens&lt;br&gt;-acces au categories&lt;br&gt;-on ne peut rien modifier" style="text;html=1;strokeColor=none;fillColor=none;align=center;verticalAlign=middle;whiteSpace=wrap;rounded=0;" parent="1" vertex="1">
                    <mxGeometry x="10" y="260" width="180" height="90" as="geometry"/>
                </mxCell>
            </root>
        </mxGraphModel>
    </diagram>
    <diagram id="XfqcqOib2gMfKJk1uMYA" name="MLD">
        <mxGraphModel dx="552" dy="1701" grid="1" gridSize="10" guides="1" tooltips="1" connect="1" arrows="1" fold="1" page="1" pageScale="1" pageWidth="827" pageHeight="1169" math="0" shadow="0">
            <root>
                <mxCell id="0"/>
                <mxCell id="1" parent="0"/>
                <mxCell id="XqSCMQjwkk0fuTl_-d3A-1" value="Links" style="shape=table;startSize=30;container=1;collapsible=1;childLayout=tableLayout;fixedRows=1;rowLines=0;fontStyle=1;align=center;resizeLast=1;html=1;" parent="1" vertex="1">
                    <mxGeometry x="22" y="110" width="250" height="240" as="geometry"/>
                </mxCell>
                <mxCell id="XqSCMQjwkk0fuTl_-d3A-2" value="" style="shape=tableRow;horizontal=0;startSize=0;swimlaneHead=0;swimlaneBody=0;fillColor=none;collapsible=0;dropTarget=0;points=[[0,0.5],[1,0.5]];portConstraint=eastwest;top=0;left=0;right=0;bottom=1;" parent="XqSCMQjwkk0fuTl_-d3A-1" vertex="1">
                    <mxGeometry y="30" width="250" height="30" as="geometry"/>
                </mxCell>
                <mxCell id="XqSCMQjwkk0fuTl_-d3A-3" value="PK" style="shape=partialRectangle;connectable=0;fillColor=none;top=0;left=0;bottom=0;right=0;fontStyle=1;overflow=hidden;whiteSpace=wrap;html=1;" parent="XqSCMQjwkk0fuTl_-d3A-2" vertex="1">
                    <mxGeometry width="30" height="30" as="geometry">
                        <mxRectangle width="30" height="30" as="alternateBounds"/>
                    </mxGeometry>
                </mxCell>
                <mxCell id="XqSCMQjwkk0fuTl_-d3A-4" value="link_id int NOT NULL" style="shape=partialRectangle;connectable=0;fillColor=none;top=0;left=0;bottom=0;right=0;align=left;spacingLeft=6;fontStyle=5;overflow=hidden;whiteSpace=wrap;html=1;" parent="XqSCMQjwkk0fuTl_-d3A-2" vertex="1">
                    <mxGeometry x="30" width="220" height="30" as="geometry">
                        <mxRectangle width="220" height="30" as="alternateBounds"/>
                    </mxGeometry>
                </mxCell>
                <mxCell id="XqSCMQjwkk0fuTl_-d3A-5" value="" style="shape=tableRow;horizontal=0;startSize=0;swimlaneHead=0;swimlaneBody=0;fillColor=none;collapsible=0;dropTarget=0;points=[[0,0.5],[1,0.5]];portConstraint=eastwest;top=0;left=0;right=0;bottom=0;" parent="XqSCMQjwkk0fuTl_-d3A-1" vertex="1">
                    <mxGeometry y="60" width="250" height="30" as="geometry"/>
                </mxCell>
                <mxCell id="XqSCMQjwkk0fuTl_-d3A-6" value="" style="shape=partialRectangle;connectable=0;fillColor=none;top=0;left=0;bottom=0;right=0;editable=1;overflow=hidden;whiteSpace=wrap;html=1;" parent="XqSCMQjwkk0fuTl_-d3A-5" vertex="1">
                    <mxGeometry width="30" height="30" as="geometry">
                        <mxRectangle width="30" height="30" as="alternateBounds"/>
                    </mxGeometry>
                </mxCell>
                <mxCell id="XqSCMQjwkk0fuTl_-d3A-7" value="url varchar(500) NOT NULL&amp;nbsp;" style="shape=partialRectangle;connectable=0;fillColor=none;top=0;left=0;bottom=0;right=0;align=left;spacingLeft=6;overflow=hidden;whiteSpace=wrap;html=1;" parent="XqSCMQjwkk0fuTl_-d3A-5" vertex="1">
                    <mxGeometry x="30" width="220" height="30" as="geometry">
                        <mxRectangle width="220" height="30" as="alternateBounds"/>
                    </mxGeometry>
                </mxCell>
                <mxCell id="XqSCMQjwkk0fuTl_-d3A-39" value="" style="shape=tableRow;horizontal=0;startSize=0;swimlaneHead=0;swimlaneBody=0;fillColor=none;collapsible=0;dropTarget=0;points=[[0,0.5],[1,0.5]];portConstraint=eastwest;top=0;left=0;right=0;bottom=0;" parent="XqSCMQjwkk0fuTl_-d3A-1" vertex="1">
                    <mxGeometry y="90" width="250" height="30" as="geometry"/>
                </mxCell>
                <mxCell id="XqSCMQjwkk0fuTl_-d3A-40" value="" style="shape=partialRectangle;connectable=0;fillColor=none;top=0;left=0;bottom=0;right=0;editable=1;overflow=hidden;whiteSpace=wrap;html=1;" parent="XqSCMQjwkk0fuTl_-d3A-39" vertex="1">
                    <mxGeometry width="30" height="30" as="geometry">
                        <mxRectangle width="30" height="30" as="alternateBounds"/>
                    </mxGeometry>
                </mxCell>
                <mxCell id="XqSCMQjwkk0fuTl_-d3A-41" value="title varchar(100) NOT NULL" style="shape=partialRectangle;connectable=0;fillColor=none;top=0;left=0;bottom=0;right=0;align=left;spacingLeft=6;overflow=hidden;whiteSpace=wrap;html=1;" parent="XqSCMQjwkk0fuTl_-d3A-39" vertex="1">
                    <mxGeometry x="30" width="220" height="30" as="geometry">
                        <mxRectangle width="220" height="30" as="alternateBounds"/>
                    </mxGeometry>
                </mxCell>
                <mxCell id="XqSCMQjwkk0fuTl_-d3A-42" value="" style="shape=tableRow;horizontal=0;startSize=0;swimlaneHead=0;swimlaneBody=0;fillColor=none;collapsible=0;dropTarget=0;points=[[0,0.5],[1,0.5]];portConstraint=eastwest;top=0;left=0;right=0;bottom=0;" parent="XqSCMQjwkk0fuTl_-d3A-1" vertex="1">
                    <mxGeometry y="120" width="250" height="30" as="geometry"/>
                </mxCell>
                <mxCell id="XqSCMQjwkk0fuTl_-d3A-43" value="" style="shape=partialRectangle;connectable=0;fillColor=none;top=0;left=0;bottom=0;right=0;editable=1;overflow=hidden;whiteSpace=wrap;html=1;" parent="XqSCMQjwkk0fuTl_-d3A-42" vertex="1">
                    <mxGeometry width="30" height="30" as="geometry">
                        <mxRectangle width="30" height="30" as="alternateBounds"/>
                    </mxGeometry>
                </mxCell>
                <mxCell id="XqSCMQjwkk0fuTl_-d3A-44" value="description varchar(1000)&amp;nbsp;" style="shape=partialRectangle;connectable=0;fillColor=none;top=0;left=0;bottom=0;right=0;align=left;spacingLeft=6;overflow=hidden;whiteSpace=wrap;html=1;" parent="XqSCMQjwkk0fuTl_-d3A-42" vertex="1">
                    <mxGeometry x="30" width="220" height="30" as="geometry">
                        <mxRectangle width="220" height="30" as="alternateBounds"/>
                    </mxGeometry>
                </mxCell>
                <mxCell id="XqSCMQjwkk0fuTl_-d3A-45" value="" style="shape=tableRow;horizontal=0;startSize=0;swimlaneHead=0;swimlaneBody=0;fillColor=none;collapsible=0;dropTarget=0;points=[[0,0.5],[1,0.5]];portConstraint=eastwest;top=0;left=0;right=0;bottom=0;" parent="XqSCMQjwkk0fuTl_-d3A-1" vertex="1">
                    <mxGeometry y="150" width="250" height="30" as="geometry"/>
                </mxCell>
                <mxCell id="XqSCMQjwkk0fuTl_-d3A-46" value="" style="shape=partialRectangle;connectable=0;fillColor=none;top=0;left=0;bottom=0;right=0;editable=1;overflow=hidden;whiteSpace=wrap;html=1;" parent="XqSCMQjwkk0fuTl_-d3A-45" vertex="1">
                    <mxGeometry width="30" height="30" as="geometry">
                        <mxRectangle width="30" height="30" as="alternateBounds"/>
                    </mxGeometry>
                </mxCell>
                <mxCell id="XqSCMQjwkk0fuTl_-d3A-47" value="creation_date datetime NOT NULL&amp;nbsp;" style="shape=partialRectangle;connectable=0;fillColor=none;top=0;left=0;bottom=0;right=0;align=left;spacingLeft=6;overflow=hidden;whiteSpace=wrap;html=1;" parent="XqSCMQjwkk0fuTl_-d3A-45" vertex="1">
                    <mxGeometry x="30" width="220" height="30" as="geometry">
                        <mxRectangle width="220" height="30" as="alternateBounds"/>
                    </mxGeometry>
                </mxCell>
                <mxCell id="copR6Sjrm_aBjceqNp18-2" value="" style="shape=tableRow;horizontal=0;startSize=0;swimlaneHead=0;swimlaneBody=0;fillColor=none;collapsible=0;dropTarget=0;points=[[0,0.5],[1,0.5]];portConstraint=eastwest;top=0;left=0;right=0;bottom=0;" parent="XqSCMQjwkk0fuTl_-d3A-1" vertex="1">
                    <mxGeometry y="180" width="250" height="30" as="geometry"/>
                </mxCell>
                <mxCell id="copR6Sjrm_aBjceqNp18-3" value="FK" style="shape=partialRectangle;connectable=0;fillColor=none;top=0;left=0;bottom=0;right=0;editable=1;overflow=hidden;whiteSpace=wrap;html=1;" parent="copR6Sjrm_aBjceqNp18-2" vertex="1">
                    <mxGeometry width="30" height="30" as="geometry">
                        <mxRectangle width="30" height="30" as="alternateBounds"/>
                    </mxGeometry>
                </mxCell>
                <mxCell id="copR6Sjrm_aBjceqNp18-4" value="user_id NOT NULL" style="shape=partialRectangle;connectable=0;fillColor=none;top=0;left=0;bottom=0;right=0;align=left;spacingLeft=6;overflow=hidden;whiteSpace=wrap;html=1;" parent="copR6Sjrm_aBjceqNp18-2" vertex="1">
                    <mxGeometry x="30" width="220" height="30" as="geometry">
                        <mxRectangle width="220" height="30" as="alternateBounds"/>
                    </mxGeometry>
                </mxCell>
                <mxCell id="e9PSdRqa6i54xIU8CoCk-31" value="" style="shape=tableRow;horizontal=0;startSize=0;swimlaneHead=0;swimlaneBody=0;fillColor=none;collapsible=0;dropTarget=0;points=[[0,0.5],[1,0.5]];portConstraint=eastwest;top=0;left=0;right=0;bottom=0;" parent="XqSCMQjwkk0fuTl_-d3A-1" vertex="1">
                    <mxGeometry y="210" width="250" height="30" as="geometry"/>
                </mxCell>
                <mxCell id="e9PSdRqa6i54xIU8CoCk-32" value="FK" style="shape=partialRectangle;connectable=0;fillColor=none;top=0;left=0;bottom=0;right=0;editable=1;overflow=hidden;whiteSpace=wrap;html=1;" parent="e9PSdRqa6i54xIU8CoCk-31" vertex="1">
                    <mxGeometry width="30" height="30" as="geometry">
                        <mxRectangle width="30" height="30" as="alternateBounds"/>
                    </mxGeometry>
                </mxCell>
                <mxCell id="e9PSdRqa6i54xIU8CoCk-33" value="tag_id NOT NULL" style="shape=partialRectangle;connectable=0;fillColor=none;top=0;left=0;bottom=0;right=0;align=left;spacingLeft=6;overflow=hidden;whiteSpace=wrap;html=1;" parent="e9PSdRqa6i54xIU8CoCk-31" vertex="1">
                    <mxGeometry x="30" width="220" height="30" as="geometry">
                        <mxRectangle width="220" height="30" as="alternateBounds"/>
                    </mxGeometry>
                </mxCell>
                <mxCell id="XqSCMQjwkk0fuTl_-d3A-14" value="Users" style="shape=table;startSize=30;container=1;collapsible=1;childLayout=tableLayout;fixedRows=1;rowLines=0;fontStyle=1;align=center;resizeLast=1;html=1;" parent="1" vertex="1">
                    <mxGeometry x="470" y="60" width="280" height="240" as="geometry"/>
                </mxCell>
                <mxCell id="XqSCMQjwkk0fuTl_-d3A-15" value="" style="shape=tableRow;horizontal=0;startSize=0;swimlaneHead=0;swimlaneBody=0;fillColor=none;collapsible=0;dropTarget=0;points=[[0,0.5],[1,0.5]];portConstraint=eastwest;top=0;left=0;right=0;bottom=1;" parent="XqSCMQjwkk0fuTl_-d3A-14" vertex="1">
                    <mxGeometry y="30" width="280" height="30" as="geometry"/>
                </mxCell>
                <mxCell id="XqSCMQjwkk0fuTl_-d3A-16" value="PK" style="shape=partialRectangle;connectable=0;fillColor=none;top=0;left=0;bottom=0;right=0;fontStyle=1;overflow=hidden;whiteSpace=wrap;html=1;" parent="XqSCMQjwkk0fuTl_-d3A-15" vertex="1">
                    <mxGeometry width="30" height="30" as="geometry">
                        <mxRectangle width="30" height="30" as="alternateBounds"/>
                    </mxGeometry>
                </mxCell>
                <mxCell id="XqSCMQjwkk0fuTl_-d3A-17" value="user_id int NOT NULL" style="shape=partialRectangle;connectable=0;fillColor=none;top=0;left=0;bottom=0;right=0;align=left;spacingLeft=6;fontStyle=5;overflow=hidden;whiteSpace=wrap;html=1;" parent="XqSCMQjwkk0fuTl_-d3A-15" vertex="1">
                    <mxGeometry x="30" width="250" height="30" as="geometry">
                        <mxRectangle width="250" height="30" as="alternateBounds"/>
                    </mxGeometry>
                </mxCell>
                <mxCell id="XqSCMQjwkk0fuTl_-d3A-21" value="" style="shape=tableRow;horizontal=0;startSize=0;swimlaneHead=0;swimlaneBody=0;fillColor=none;collapsible=0;dropTarget=0;points=[[0,0.5],[1,0.5]];portConstraint=eastwest;top=0;left=0;right=0;bottom=0;" parent="XqSCMQjwkk0fuTl_-d3A-14" vertex="1">
                    <mxGeometry y="60" width="280" height="30" as="geometry"/>
                </mxCell>
                <mxCell id="XqSCMQjwkk0fuTl_-d3A-22" value="" style="shape=partialRectangle;connectable=0;fillColor=none;top=0;left=0;bottom=0;right=0;editable=1;overflow=hidden;whiteSpace=wrap;html=1;" parent="XqSCMQjwkk0fuTl_-d3A-21" vertex="1">
                    <mxGeometry width="30" height="30" as="geometry">
                        <mxRectangle width="30" height="30" as="alternateBounds"/>
                    </mxGeometry>
                </mxCell>
                <mxCell id="XqSCMQjwkk0fuTl_-d3A-23" value="forename varchar(100) NOT NULL" style="shape=partialRectangle;connectable=0;fillColor=none;top=0;left=0;bottom=0;right=0;align=left;spacingLeft=6;overflow=hidden;whiteSpace=wrap;html=1;" parent="XqSCMQjwkk0fuTl_-d3A-21" vertex="1">
                    <mxGeometry x="30" width="250" height="30" as="geometry">
                        <mxRectangle width="250" height="30" as="alternateBounds"/>
                    </mxGeometry>
                </mxCell>
                <mxCell id="XqSCMQjwkk0fuTl_-d3A-48" value="" style="shape=tableRow;horizontal=0;startSize=0;swimlaneHead=0;swimlaneBody=0;fillColor=none;collapsible=0;dropTarget=0;points=[[0,0.5],[1,0.5]];portConstraint=eastwest;top=0;left=0;right=0;bottom=0;" parent="XqSCMQjwkk0fuTl_-d3A-14" vertex="1">
                    <mxGeometry y="90" width="280" height="30" as="geometry"/>
                </mxCell>
                <mxCell id="XqSCMQjwkk0fuTl_-d3A-49" value="" style="shape=partialRectangle;connectable=0;fillColor=none;top=0;left=0;bottom=0;right=0;editable=1;overflow=hidden;whiteSpace=wrap;html=1;" parent="XqSCMQjwkk0fuTl_-d3A-48" vertex="1">
                    <mxGeometry width="30" height="30" as="geometry">
                        <mxRectangle width="30" height="30" as="alternateBounds"/>
                    </mxGeometry>
                </mxCell>
                <mxCell id="XqSCMQjwkk0fuTl_-d3A-50" value="surname varchar(100) NOT NULL" style="shape=partialRectangle;connectable=0;fillColor=none;top=0;left=0;bottom=0;right=0;align=left;spacingLeft=6;overflow=hidden;whiteSpace=wrap;html=1;" parent="XqSCMQjwkk0fuTl_-d3A-48" vertex="1">
                    <mxGeometry x="30" width="250" height="30" as="geometry">
                        <mxRectangle width="250" height="30" as="alternateBounds"/>
                    </mxGeometry>
                </mxCell>
                <mxCell id="XqSCMQjwkk0fuTl_-d3A-51" value="" style="shape=tableRow;horizontal=0;startSize=0;swimlaneHead=0;swimlaneBody=0;fillColor=none;collapsible=0;dropTarget=0;points=[[0,0.5],[1,0.5]];portConstraint=eastwest;top=0;left=0;right=0;bottom=0;" parent="XqSCMQjwkk0fuTl_-d3A-14" vertex="1">
                    <mxGeometry y="120" width="280" height="30" as="geometry"/>
                </mxCell>
                <mxCell id="XqSCMQjwkk0fuTl_-d3A-52" value="" style="shape=partialRectangle;connectable=0;fillColor=none;top=0;left=0;bottom=0;right=0;editable=1;overflow=hidden;whiteSpace=wrap;html=1;" parent="XqSCMQjwkk0fuTl_-d3A-51" vertex="1">
                    <mxGeometry width="30" height="30" as="geometry">
                        <mxRectangle width="30" height="30" as="alternateBounds"/>
                    </mxGeometry>
                </mxCell>
                <mxCell id="XqSCMQjwkk0fuTl_-d3A-53" value="user_mail varchar(200) NOT NULL" style="shape=partialRectangle;connectable=0;fillColor=none;top=0;left=0;bottom=0;right=0;align=left;spacingLeft=6;overflow=hidden;whiteSpace=wrap;html=1;" parent="XqSCMQjwkk0fuTl_-d3A-51" vertex="1">
                    <mxGeometry x="30" width="250" height="30" as="geometry">
                        <mxRectangle width="250" height="30" as="alternateBounds"/>
                    </mxGeometry>
                </mxCell>
                <mxCell id="XqSCMQjwkk0fuTl_-d3A-54" value="" style="shape=tableRow;horizontal=0;startSize=0;swimlaneHead=0;swimlaneBody=0;fillColor=none;collapsible=0;dropTarget=0;points=[[0,0.5],[1,0.5]];portConstraint=eastwest;top=0;left=0;right=0;bottom=0;" parent="XqSCMQjwkk0fuTl_-d3A-14" vertex="1">
                    <mxGeometry y="150" width="280" height="30" as="geometry"/>
                </mxCell>
                <mxCell id="XqSCMQjwkk0fuTl_-d3A-55" value="" style="shape=partialRectangle;connectable=0;fillColor=none;top=0;left=0;bottom=0;right=0;editable=1;overflow=hidden;whiteSpace=wrap;html=1;" parent="XqSCMQjwkk0fuTl_-d3A-54" vertex="1">
                    <mxGeometry width="30" height="30" as="geometry">
                        <mxRectangle width="30" height="30" as="alternateBounds"/>
                    </mxGeometry>
                </mxCell>
                <mxCell id="XqSCMQjwkk0fuTl_-d3A-56" value="password varchar(500) NOT NULL" style="shape=partialRectangle;connectable=0;fillColor=none;top=0;left=0;bottom=0;right=0;align=left;spacingLeft=6;overflow=hidden;whiteSpace=wrap;html=1;" parent="XqSCMQjwkk0fuTl_-d3A-54" vertex="1">
                    <mxGeometry x="30" width="250" height="30" as="geometry">
                        <mxRectangle width="250" height="30" as="alternateBounds"/>
                    </mxGeometry>
                </mxCell>
                <mxCell id="XqSCMQjwkk0fuTl_-d3A-57" value="" style="shape=tableRow;horizontal=0;startSize=0;swimlaneHead=0;swimlaneBody=0;fillColor=none;collapsible=0;dropTarget=0;points=[[0,0.5],[1,0.5]];portConstraint=eastwest;top=0;left=0;right=0;bottom=0;" parent="XqSCMQjwkk0fuTl_-d3A-14" vertex="1">
                    <mxGeometry y="180" width="280" height="30" as="geometry"/>
                </mxCell>
                <mxCell id="XqSCMQjwkk0fuTl_-d3A-58" value="" style="shape=partialRectangle;connectable=0;fillColor=none;top=0;left=0;bottom=0;right=0;editable=1;overflow=hidden;whiteSpace=wrap;html=1;" parent="XqSCMQjwkk0fuTl_-d3A-57" vertex="1">
                    <mxGeometry width="30" height="30" as="geometry">
                        <mxRectangle width="30" height="30" as="alternateBounds"/>
                    </mxGeometry>
                </mxCell>
                <mxCell id="XqSCMQjwkk0fuTl_-d3A-59" value="avatar blob" style="shape=partialRectangle;connectable=0;fillColor=none;top=0;left=0;bottom=0;right=0;align=left;spacingLeft=6;overflow=hidden;whiteSpace=wrap;html=1;" parent="XqSCMQjwkk0fuTl_-d3A-57" vertex="1">
                    <mxGeometry x="30" width="250" height="30" as="geometry">
                        <mxRectangle width="250" height="30" as="alternateBounds"/>
                    </mxGeometry>
                </mxCell>
                <mxCell id="XqSCMQjwkk0fuTl_-d3A-60" value="" style="shape=tableRow;horizontal=0;startSize=0;swimlaneHead=0;swimlaneBody=0;fillColor=none;collapsible=0;dropTarget=0;points=[[0,0.5],[1,0.5]];portConstraint=eastwest;top=0;left=0;right=0;bottom=0;" parent="XqSCMQjwkk0fuTl_-d3A-14" vertex="1">
                    <mxGeometry y="210" width="280" height="30" as="geometry"/>
                </mxCell>
                <mxCell id="XqSCMQjwkk0fuTl_-d3A-61" value="" style="shape=partialRectangle;connectable=0;fillColor=none;top=0;left=0;bottom=0;right=0;editable=1;overflow=hidden;whiteSpace=wrap;html=1;" parent="XqSCMQjwkk0fuTl_-d3A-60" vertex="1">
                    <mxGeometry width="30" height="30" as="geometry">
                        <mxRectangle width="30" height="30" as="alternateBounds"/>
                    </mxGeometry>
                </mxCell>
                <mxCell id="XqSCMQjwkk0fuTl_-d3A-62" value="avatar mimeType varchar(500)" style="shape=partialRectangle;connectable=0;fillColor=none;top=0;left=0;bottom=0;right=0;align=left;spacingLeft=6;overflow=hidden;whiteSpace=wrap;html=1;" parent="XqSCMQjwkk0fuTl_-d3A-60" vertex="1">
                    <mxGeometry x="30" width="250" height="30" as="geometry">
                        <mxRectangle width="250" height="30" as="alternateBounds"/>
                    </mxGeometry>
                </mxCell>
                <mxCell id="-6LLHPSCjd86lUfXywk7-2" value="0,n" style="text;html=1;strokeColor=none;fillColor=none;align=center;verticalAlign=middle;whiteSpace=wrap;rounded=0;" parent="1" vertex="1">
                    <mxGeometry x="280" y="300" width="60" height="30" as="geometry"/>
                </mxCell>
                <mxCell id="-6LLHPSCjd86lUfXywk7-3" value="1,1" style="text;html=1;strokeColor=none;fillColor=none;align=center;verticalAlign=middle;whiteSpace=wrap;rounded=0;" parent="1" vertex="1">
                    <mxGeometry x="420" y="80" width="60" height="30" as="geometry"/>
                </mxCell>
                <mxCell id="copR6Sjrm_aBjceqNp18-1" value="" style="edgeStyle=entityRelationEdgeStyle;fontSize=12;html=1;endArrow=ERoneToMany;rounded=0;exitX=1;exitY=0.5;exitDx=0;exitDy=0;entryX=0;entryY=0.5;entryDx=0;entryDy=0;" parent="1" source="copR6Sjrm_aBjceqNp18-2" target="XqSCMQjwkk0fuTl_-d3A-15" edge="1">
                    <mxGeometry width="100" height="100" relative="1" as="geometry">
                        <mxPoint x="360" y="340" as="sourcePoint"/>
                        <mxPoint x="460" y="240" as="targetPoint"/>
                    </mxGeometry>
                </mxCell>
                <mxCell id="copR6Sjrm_aBjceqNp18-6" value="crée" style="text;html=1;strokeColor=none;fillColor=none;align=center;verticalAlign=middle;whiteSpace=wrap;rounded=0;" parent="1" vertex="1">
                    <mxGeometry x="340" y="170" width="60" height="30" as="geometry"/>
                </mxCell>
                <mxCell id="copR6Sjrm_aBjceqNp18-7" value="Le lien est crée par 1 et 1 seul utilisateur&lt;br&gt;il ne peut pas être créé par 0 utilisateur" style="text;html=1;strokeColor=none;fillColor=none;align=center;verticalAlign=middle;whiteSpace=wrap;rounded=0;" parent="1" vertex="1">
                    <mxGeometry x="35" y="50" width="220" height="30" as="geometry"/>
                </mxCell>
                <mxCell id="copR6Sjrm_aBjceqNp18-8" value="Un utilisateur peut créer 0 ou plusieurs liens" style="text;html=1;strokeColor=none;fillColor=none;align=center;verticalAlign=middle;whiteSpace=wrap;rounded=0;" parent="1" vertex="1">
                    <mxGeometry x="500" y="10" width="220" height="30" as="geometry"/>
                </mxCell>
                <mxCell id="e9PSdRqa6i54xIU8CoCk-1" value="link_tags" style="shape=table;startSize=30;container=1;collapsible=1;childLayout=tableLayout;fixedRows=1;rowLines=0;fontStyle=1;align=center;resizeLast=1;html=1;" parent="1" vertex="1">
                    <mxGeometry x="180" y="450" width="280" height="90" as="geometry"/>
                </mxCell>
                <mxCell id="e9PSdRqa6i54xIU8CoCk-2" value="" style="shape=tableRow;horizontal=0;startSize=0;swimlaneHead=0;swimlaneBody=0;fillColor=none;collapsible=0;dropTarget=0;points=[[0,0.5],[1,0.5]];portConstraint=eastwest;top=0;left=0;right=0;bottom=1;" parent="e9PSdRqa6i54xIU8CoCk-1" vertex="1">
                    <mxGeometry y="30" width="280" height="30" as="geometry"/>
                </mxCell>
                <mxCell id="e9PSdRqa6i54xIU8CoCk-3" value="PK FK" style="shape=partialRectangle;connectable=0;fillColor=none;top=0;left=0;bottom=0;right=0;fontStyle=1;overflow=hidden;whiteSpace=wrap;html=1;" parent="e9PSdRqa6i54xIU8CoCk-2" vertex="1">
                    <mxGeometry width="55" height="30" as="geometry">
                        <mxRectangle width="55" height="30" as="alternateBounds"/>
                    </mxGeometry>
                </mxCell>
                <mxCell id="e9PSdRqa6i54xIU8CoCk-4" value="link_id int NOT NULL" style="shape=partialRectangle;connectable=0;fillColor=none;top=0;left=0;bottom=0;right=0;align=left;spacingLeft=6;fontStyle=5;overflow=hidden;whiteSpace=wrap;html=1;" parent="e9PSdRqa6i54xIU8CoCk-2" vertex="1">
                    <mxGeometry x="55" width="225" height="30" as="geometry">
                        <mxRectangle width="225" height="30" as="alternateBounds"/>
                    </mxGeometry>
                </mxCell>
                <mxCell id="e9PSdRqa6i54xIU8CoCk-5" value="" style="shape=tableRow;horizontal=0;startSize=0;swimlaneHead=0;swimlaneBody=0;fillColor=none;collapsible=0;dropTarget=0;points=[[0,0.5],[1,0.5]];portConstraint=eastwest;top=0;left=0;right=0;bottom=0;" parent="e9PSdRqa6i54xIU8CoCk-1" vertex="1">
                    <mxGeometry y="60" width="280" height="30" as="geometry"/>
                </mxCell>
                <mxCell id="e9PSdRqa6i54xIU8CoCk-6" value="&lt;b&gt;PK FK&lt;/b&gt;" style="shape=partialRectangle;connectable=0;fillColor=none;top=0;left=0;bottom=0;right=0;editable=1;overflow=hidden;whiteSpace=wrap;html=1;" parent="e9PSdRqa6i54xIU8CoCk-5" vertex="1">
                    <mxGeometry width="55" height="30" as="geometry">
                        <mxRectangle width="55" height="30" as="alternateBounds"/>
                    </mxGeometry>
                </mxCell>
                <mxCell id="e9PSdRqa6i54xIU8CoCk-7" value="&lt;b&gt;&lt;u&gt;tag_id int NOT NULL&lt;/u&gt;&lt;/b&gt;" style="shape=partialRectangle;connectable=0;fillColor=none;top=0;left=0;bottom=0;right=0;align=left;spacingLeft=6;overflow=hidden;whiteSpace=wrap;html=1;" parent="e9PSdRqa6i54xIU8CoCk-5" vertex="1">
                    <mxGeometry x="55" width="225" height="30" as="geometry">
                        <mxRectangle width="225" height="30" as="alternateBounds"/>
                    </mxGeometry>
                </mxCell>
                <mxCell id="e9PSdRqa6i54xIU8CoCk-14" value="tags" style="shape=table;startSize=30;container=1;collapsible=1;childLayout=tableLayout;fixedRows=1;rowLines=0;fontStyle=1;align=center;resizeLast=1;html=1;movable=1;resizable=1;rotatable=1;deletable=1;editable=1;locked=0;connectable=1;" parent="1" vertex="1">
                    <mxGeometry x="27" y="640" width="240" height="120" as="geometry"/>
                </mxCell>
                <mxCell id="e9PSdRqa6i54xIU8CoCk-15" value="" style="shape=tableRow;horizontal=0;startSize=0;swimlaneHead=0;swimlaneBody=0;fillColor=none;collapsible=0;dropTarget=0;points=[[0,0.5],[1,0.5]];portConstraint=eastwest;top=0;left=0;right=0;bottom=1;movable=1;resizable=1;rotatable=1;deletable=1;editable=1;locked=0;connectable=1;" parent="e9PSdRqa6i54xIU8CoCk-14" vertex="1">
                    <mxGeometry y="30" width="240" height="30" as="geometry"/>
                </mxCell>
                <mxCell id="e9PSdRqa6i54xIU8CoCk-16" value="PK" style="shape=partialRectangle;connectable=1;fillColor=none;top=0;left=0;bottom=0;right=0;fontStyle=1;overflow=hidden;whiteSpace=wrap;html=1;movable=1;resizable=1;rotatable=1;deletable=1;editable=1;locked=0;" parent="e9PSdRqa6i54xIU8CoCk-15" vertex="1">
                    <mxGeometry width="30" height="30" as="geometry">
                        <mxRectangle width="30" height="30" as="alternateBounds"/>
                    </mxGeometry>
                </mxCell>
                <mxCell id="e9PSdRqa6i54xIU8CoCk-17" value="tag_id int NOT NULL" style="shape=partialRectangle;connectable=1;fillColor=none;top=0;left=0;bottom=0;right=0;align=left;spacingLeft=6;fontStyle=5;overflow=hidden;whiteSpace=wrap;html=1;movable=1;resizable=1;rotatable=1;deletable=1;editable=1;locked=0;" parent="e9PSdRqa6i54xIU8CoCk-15" vertex="1">
                    <mxGeometry x="30" width="210" height="30" as="geometry">
                        <mxRectangle width="210" height="30" as="alternateBounds"/>
                    </mxGeometry>
                </mxCell>
                <mxCell id="e9PSdRqa6i54xIU8CoCk-18" value="" style="shape=tableRow;horizontal=0;startSize=0;swimlaneHead=0;swimlaneBody=0;fillColor=none;collapsible=0;dropTarget=0;points=[[0,0.5],[1,0.5]];portConstraint=eastwest;top=0;left=0;right=0;bottom=0;movable=1;resizable=1;rotatable=1;deletable=1;editable=1;locked=0;connectable=1;" parent="e9PSdRqa6i54xIU8CoCk-14" vertex="1">
                    <mxGeometry y="60" width="240" height="30" as="geometry"/>
                </mxCell>
                <mxCell id="e9PSdRqa6i54xIU8CoCk-19" value="" style="shape=partialRectangle;connectable=1;fillColor=none;top=0;left=0;bottom=0;right=0;editable=1;overflow=hidden;whiteSpace=wrap;html=1;movable=1;resizable=1;rotatable=1;deletable=1;locked=0;" parent="e9PSdRqa6i54xIU8CoCk-18" vertex="1">
                    <mxGeometry width="30" height="30" as="geometry">
                        <mxRectangle width="30" height="30" as="alternateBounds"/>
                    </mxGeometry>
                </mxCell>
                <mxCell id="e9PSdRqa6i54xIU8CoCk-20" value="name varchar(20) NOT NULL" style="shape=partialRectangle;connectable=1;fillColor=none;top=0;left=0;bottom=0;right=0;align=left;spacingLeft=6;overflow=hidden;whiteSpace=wrap;html=1;movable=1;resizable=1;rotatable=1;deletable=1;editable=1;locked=0;" parent="e9PSdRqa6i54xIU8CoCk-18" vertex="1">
                    <mxGeometry x="30" width="210" height="30" as="geometry">
                        <mxRectangle width="210" height="30" as="alternateBounds"/>
                    </mxGeometry>
                </mxCell>
                <mxCell id="e9PSdRqa6i54xIU8CoCk-39" value="" style="shape=tableRow;horizontal=0;startSize=0;swimlaneHead=0;swimlaneBody=0;fillColor=none;collapsible=0;dropTarget=0;points=[[0,0.5],[1,0.5]];portConstraint=eastwest;top=0;left=0;right=0;bottom=0;movable=1;resizable=1;rotatable=1;deletable=1;editable=1;locked=0;connectable=1;" parent="e9PSdRqa6i54xIU8CoCk-14" vertex="1">
                    <mxGeometry y="90" width="240" height="30" as="geometry"/>
                </mxCell>
                <mxCell id="e9PSdRqa6i54xIU8CoCk-40" value="" style="shape=partialRectangle;connectable=1;fillColor=none;top=0;left=0;bottom=0;right=0;editable=1;overflow=hidden;whiteSpace=wrap;html=1;movable=1;resizable=1;rotatable=1;deletable=1;locked=0;" parent="e9PSdRqa6i54xIU8CoCk-39" vertex="1">
                    <mxGeometry width="30" height="30" as="geometry">
                        <mxRectangle width="30" height="30" as="alternateBounds"/>
                    </mxGeometry>
                </mxCell>
                <mxCell id="e9PSdRqa6i54xIU8CoCk-41" value="color varchar(6) NOT NULL" style="shape=partialRectangle;connectable=1;fillColor=none;top=0;left=0;bottom=0;right=0;align=left;spacingLeft=6;overflow=hidden;whiteSpace=wrap;html=1;movable=1;resizable=1;rotatable=1;deletable=1;editable=1;locked=0;" parent="e9PSdRqa6i54xIU8CoCk-39" vertex="1">
                    <mxGeometry x="30" width="210" height="30" as="geometry">
                        <mxRectangle width="210" height="30" as="alternateBounds"/>
                    </mxGeometry>
                </mxCell>
                <mxCell id="e9PSdRqa6i54xIU8CoCk-35" value="0,n" style="text;html=1;strokeColor=none;fillColor=none;align=center;verticalAlign=middle;whiteSpace=wrap;rounded=0;" parent="1" vertex="1">
                    <mxGeometry x="130" y="360" width="60" height="30" as="geometry"/>
                </mxCell>
                <mxCell id="e9PSdRqa6i54xIU8CoCk-36" value="1,n" style="text;html=1;strokeColor=none;fillColor=none;align=center;verticalAlign=middle;whiteSpace=wrap;rounded=0;" parent="1" vertex="1">
                    <mxGeometry x="130" y="600" width="60" height="30" as="geometry"/>
                </mxCell>
                <mxCell id="e9PSdRqa6i54xIU8CoCk-37" value="appartient" style="text;html=1;align=center;verticalAlign=middle;whiteSpace=wrap;rounded=0;fillColor=none;" parent="1" vertex="1">
                    <mxGeometry x="110" y="480" width="60" height="30" as="geometry"/>
                </mxCell>
                <mxCell id="e9PSdRqa6i54xIU8CoCk-44" value="" style="endArrow=classic;html=1;rounded=0;exitX=0.464;exitY=1.067;exitDx=0;exitDy=0;exitPerimeter=0;entryX=0.463;entryY=0;entryDx=0;entryDy=0;entryPerimeter=0;" parent="1" source="e9PSdRqa6i54xIU8CoCk-31" target="e9PSdRqa6i54xIU8CoCk-14" edge="1">
                    <mxGeometry width="50" height="50" relative="1" as="geometry">
                        <mxPoint x="100" y="400" as="sourcePoint"/>
                        <mxPoint x="330" y="390" as="targetPoint"/>
                    </mxGeometry>
                </mxCell>
                <mxCell id="e9PSdRqa6i54xIU8CoCk-48" value="" style="endArrow=classic;html=1;rounded=0;exitX=0.536;exitY=1.067;exitDx=0;exitDy=0;exitPerimeter=0;entryX=0.804;entryY=1.067;entryDx=0;entryDy=0;entryPerimeter=0;" parent="1" source="XqSCMQjwkk0fuTl_-d3A-60" target="e9PSdRqa6i54xIU8CoCk-31" edge="1">
                    <mxGeometry width="50" height="50" relative="1" as="geometry">
                        <mxPoint x="600" y="330" as="sourcePoint"/>
                        <mxPoint x="240" y="390" as="targetPoint"/>
                        <Array as="points">
                            <mxPoint x="620" y="380"/>
                            <mxPoint x="223" y="380"/>
                        </Array>
                    </mxGeometry>
                </mxCell>
                <mxCell id="e9PSdRqa6i54xIU8CoCk-49" value="like" style="text;html=1;strokeColor=none;fillColor=none;align=center;verticalAlign=middle;whiteSpace=wrap;rounded=0;" parent="1" vertex="1">
                    <mxGeometry x="384" y="350" width="60" height="30" as="geometry"/>
                </mxCell>
                <mxCell id="e9PSdRqa6i54xIU8CoCk-50" value="0,n" style="text;html=1;strokeColor=none;fillColor=none;align=center;verticalAlign=middle;whiteSpace=wrap;rounded=0;" parent="1" vertex="1">
                    <mxGeometry x="207" y="350" width="60" height="30" as="geometry"/>
                </mxCell>
                <mxCell id="e9PSdRqa6i54xIU8CoCk-51" value="0,n" style="text;html=1;strokeColor=none;fillColor=none;align=center;verticalAlign=middle;whiteSpace=wrap;rounded=0;" parent="1" vertex="1">
                    <mxGeometry x="610" y="340" width="60" height="30" as="geometry"/>
                </mxCell>
                <mxCell id="e9PSdRqa6i54xIU8CoCk-52" value="&lt;font style=&quot;font-size: 17px;&quot;&gt;data base schema&lt;/font&gt;" style="text;html=1;strokeColor=#B09500;fillColor=#e3c800;align=center;verticalAlign=middle;whiteSpace=wrap;rounded=0;fontColor=#000000;" parent="1" vertex="1">
                    <mxGeometry x="384" y="-70" width="186" height="30" as="geometry"/>
                </mxCell>
                <mxCell id="e9PSdRqa6i54xIU8CoCk-53" value="likes" style="shape=table;startSize=30;container=1;collapsible=1;childLayout=tableLayout;fixedRows=1;rowLines=0;fontStyle=1;align=center;resizeLast=1;html=1;" parent="1" vertex="1">
                    <mxGeometry x="480" y="390" width="280" height="90" as="geometry"/>
                </mxCell>
                <mxCell id="e9PSdRqa6i54xIU8CoCk-54" value="" style="shape=tableRow;horizontal=0;startSize=0;swimlaneHead=0;swimlaneBody=0;fillColor=none;collapsible=0;dropTarget=0;points=[[0,0.5],[1,0.5]];portConstraint=eastwest;top=0;left=0;right=0;bottom=1;" parent="e9PSdRqa6i54xIU8CoCk-53" vertex="1">
                    <mxGeometry y="30" width="280" height="30" as="geometry"/>
                </mxCell>
                <mxCell id="e9PSdRqa6i54xIU8CoCk-55" value="PK FK" style="shape=partialRectangle;connectable=0;fillColor=none;top=0;left=0;bottom=0;right=0;fontStyle=1;overflow=hidden;whiteSpace=wrap;html=1;" parent="e9PSdRqa6i54xIU8CoCk-54" vertex="1">
                    <mxGeometry width="55" height="30" as="geometry">
                        <mxRectangle width="55" height="30" as="alternateBounds"/>
                    </mxGeometry>
                </mxCell>
                <mxCell id="e9PSdRqa6i54xIU8CoCk-56" value="user_id int NOT NULL" style="shape=partialRectangle;connectable=0;fillColor=none;top=0;left=0;bottom=0;right=0;align=left;spacingLeft=6;fontStyle=5;overflow=hidden;whiteSpace=wrap;html=1;" parent="e9PSdRqa6i54xIU8CoCk-54" vertex="1">
                    <mxGeometry x="55" width="225" height="30" as="geometry">
                        <mxRectangle width="225" height="30" as="alternateBounds"/>
                    </mxGeometry>
                </mxCell>
                <mxCell id="e9PSdRqa6i54xIU8CoCk-57" value="" style="shape=tableRow;horizontal=0;startSize=0;swimlaneHead=0;swimlaneBody=0;fillColor=none;collapsible=0;dropTarget=0;points=[[0,0.5],[1,0.5]];portConstraint=eastwest;top=0;left=0;right=0;bottom=0;" parent="e9PSdRqa6i54xIU8CoCk-53" vertex="1">
                    <mxGeometry y="60" width="280" height="30" as="geometry"/>
                </mxCell>
                <mxCell id="e9PSdRqa6i54xIU8CoCk-58" value="&lt;b&gt;PK FK&lt;/b&gt;" style="shape=partialRectangle;connectable=0;fillColor=none;top=0;left=0;bottom=0;right=0;editable=1;overflow=hidden;whiteSpace=wrap;html=1;" parent="e9PSdRqa6i54xIU8CoCk-57" vertex="1">
                    <mxGeometry width="55" height="30" as="geometry">
                        <mxRectangle width="55" height="30" as="alternateBounds"/>
                    </mxGeometry>
                </mxCell>
                <mxCell id="e9PSdRqa6i54xIU8CoCk-59" value="&lt;b&gt;&lt;u&gt;link_id int NOT NULL&lt;/u&gt;&lt;/b&gt;" style="shape=partialRectangle;connectable=0;fillColor=none;top=0;left=0;bottom=0;right=0;align=left;spacingLeft=6;overflow=hidden;whiteSpace=wrap;html=1;" parent="e9PSdRqa6i54xIU8CoCk-57" vertex="1">
                    <mxGeometry x="55" width="225" height="30" as="geometry">
                        <mxRectangle width="225" height="30" as="alternateBounds"/>
                    </mxGeometry>
                </mxCell>
            </root>
        </mxGraphModel>
    </diagram>
    <diagram id="cwF2TohoWy5d_dxu2QaB" name="fonctionnalite a ajouter">
        <mxGraphModel dx="954" dy="549" grid="1" gridSize="10" guides="1" tooltips="1" connect="1" arrows="1" fold="1" page="1" pageScale="1" pageWidth="827" pageHeight="1169" math="0" shadow="0">
            <root>
                <mxCell id="0"/>
                <mxCell id="1" parent="0"/>
                <mxCell id="4cfDTSZIj2RiAJjBywh_-1" value="role admin&lt;br&gt;utilisateur&lt;br&gt;moderateur" style="text;html=1;strokeColor=none;fillColor=none;align=center;verticalAlign=middle;whiteSpace=wrap;rounded=0;" parent="1" vertex="1">
                    <mxGeometry x="380" y="270" width="60" height="30" as="geometry"/>
                </mxCell>
            </root>
        </mxGraphModel>
    </diagram>
</mxfile>